<?xml version="1.0" encoding="UTF-8"?>
<svg version="1.1" xmlns="http://www.w3.org/2000/svg" width="500" height="500">
<path d="M0 0 C2.88916016 -0.34057617 2.88916016 -0.34057617 6.5390625 -0.29296875 C8.49199219 -0.2784668 8.49199219 -0.2784668 10.484375 -0.26367188 C11.86458923 -0.23860388 13.24479756 -0.21320902 14.625 -0.1875 C16.01300663 -0.17245517 17.40102867 -0.15876641 18.7890625 -0.14648438 C22.19309509 -0.1110257 25.59635622 -0.06160298 29 0 C31.77920773 6.09274724 34.31365033 12.2400429 36.6796875 18.50390625 C37.01493439 19.38545883 37.35018127 20.26701141 37.69558716 21.17527771 C38.75775187 23.97012888 39.81640095 26.76629661 40.875 29.5625 C41.57659912 31.40959023 42.27842044 33.25659608 42.98046875 35.10351562 C48.13476726 48.67214793 53.26130536 62.25082616 58.27050781 75.8737793 C63.82627124 90.97037519 69.54899627 106.00206667 75.29052734 121.02880859 C78.54287504 129.54205182 81.78282651 138.05924956 84.97564697 146.59501648 C86.96202359 151.90508194 88.97520064 157.2044931 91 162.5 C95.71574093 174.86425136 100.37161433 187.24416235 104.875 199.6875 C108.50127317 209.70362444 112.2751764 219.65886365 116.0859375 229.60595703 C118.17870921 235.08718551 120.22816181 240.58474568 122.28222656 246.08056641 C123.01780232 248.04760608 123.75474926 250.0141266 124.4921875 251.98046875 C124.74081543 252.64344971 124.98944336 253.30643066 125.24560547 253.98950195 C125.7468755 255.32541092 126.24850076 256.66118665 126.75048828 257.99682617 C128.01041362 261.35101829 129.26259905 264.70773987 130.5 268.0703125 C136.77713018 288.98047654 136.77713018 288.98047654 150.69140625 304.23046875 C155.02546798 305.67515599 159.55864232 306.04078626 164.0859375 306.5078125 C165.04757812 306.67023438 166.00921875 306.83265625 167 307 C167.33 307.66 167.66 308.32 168 309 C167.67 309.99 167.34 310.98 167 312 C154.42801303 312.15544296 141.85596167 312.30358089 129.28378582 312.4429636 C123.44296821 312.50793579 117.60219809 312.57521403 111.76147461 312.64819336 C61.40081405 313.27427761 61.40081405 313.27427761 40 312 C39.4375 310.0625 39.4375 310.0625 39 308 C40.62421605 306.37578395 42.46447563 306.83372105 44.70703125 306.7890625 C46.16834473 306.74942383 46.16834473 306.74942383 47.65917969 306.70898438 C48.69977539 306.68126953 49.74037109 306.65355469 50.8125 306.625 C59.27276388 306.33856447 66.94262131 305.74547718 75 303 C75.99 302.67 76.98 302.34 78 302 C82.71657855 291.26162619 79.95119598 279.77241807 76.125 269.25 C75.7017041 268.03078857 75.2784082 266.81157715 74.84228516 265.55541992 C73.26389121 261.02399286 71.63146927 256.51253254 70 252 C69.25306376 249.92731508 68.5063314 247.85455667 67.75976562 245.78173828 C66.94925972 243.53286284 66.1387119 241.2840025 65.328125 239.03515625 C64.92177826 237.90739777 64.51543152 236.77963928 64.09677124 235.6177063 C62.04061357 229.91518011 59.9762801 224.21587703 57.89501953 218.52246094 C57.50602478 217.45321884 57.11703003 216.38397675 56.71624756 215.28233337 C55.97766256 213.25240117 55.235348 211.22382104 54.48883057 209.1967926 C53.99621735 207.83928139 53.99621735 207.83928139 53.49365234 206.4543457 C53.20404633 205.66324905 52.91444031 204.8721524 52.61605835 204.05708313 C52 202 52 202 52 199 C13.39 199 -25.22 199 -65 199 C-65.66 201.97 -66.32 204.94 -67 208 C-67.58259837 209.87562562 -68.20342107 211.74016836 -68.87597656 213.58544922 C-69.23685364 214.58454315 -69.59773071 215.58363708 -69.96954346 216.61300659 C-70.35600037 217.66626129 -70.74245728 218.71951599 -71.140625 219.8046875 C-71.74762238 221.48257858 -71.74762238 221.48257858 -72.36688232 223.19436646 C-73.6560344 226.75649719 -74.95233373 230.31596296 -76.25 233.875 C-83.14047341 252.710858 -83.14047341 252.710858 -89.5703125 271.70703125 C-89.93555023 272.811642 -89.93555023 272.811642 -90.3081665 273.93856812 C-92.79453833 281.82133784 -93.67345141 289.7799921 -90.5625 297.625 C-78.175724 309.10542654 -55.73636483 306.51905258 -40 307 C-40 308.65 -40 310.3 -40 312 C-63.98647355 312.91395562 -87.96677899 313.11243182 -111.96784973 313.12338257 C-114.31991994 313.12500512 -116.67198058 313.12857087 -119.02404785 313.13256836 C-122.76646648 313.13841361 -126.50884421 313.13865143 -130.25126457 313.13431931 C-131.6536348 313.13331879 -133.05600713 313.13391866 -134.45837593 313.13615799 C-136.38802176 313.13869046 -138.31767304 313.13423762 -140.24731445 313.12939453 C-141.33849075 313.12859894 -142.42966705 313.12780334 -143.5539093 313.12698364 C-146 313 -146 313 -147 312 C-147.04063832 310.33382885 -147.042721 308.66611905 -147 307 C-146.42145264 306.9906543 -145.84290527 306.98130859 -145.24682617 306.97167969 C-129.66201448 306.80580843 -129.66201448 306.80580843 -115 302 C-113.93458984 301.56494141 -113.93458984 301.56494141 -112.84765625 301.12109375 C-110.5168992 299.70687119 -110.06541592 298.48147505 -109 296 C-108.07035456 294.4951194 -107.13215874 292.99550196 -106.1875 291.5 C-100.03374269 281.26780515 -96.35306485 269.75351364 -92.3125 258.5625 C-92.05166626 257.84292114 -91.79083252 257.12334229 -91.52209473 256.38195801 C-87.59697688 245.55148522 -83.79135756 234.6840206 -80.06494141 223.78344727 C-76.19445921 212.49063052 -72.19560526 201.24460644 -68.1875 190 C-63.28337229 176.23924727 -58.39538345 162.47344514 -53.5625 148.6875 C-48.68615257 134.7847627 -43.79068144 120.88888228 -38.875 107 C-38.52325714 106.00614288 -38.17151428 105.01228577 -37.80911255 103.98831177 C-33.56667892 92.00677143 -29.30138768 80.03362514 -25.0078125 68.0703125 C-24.37998367 66.32086334 -24.37998367 66.32086334 -23.73947144 64.53607178 C-21.72340166 58.92020115 -19.70499343 53.30518471 -17.68310547 47.69140625 C-16.93429623 45.60947356 -16.18575753 43.52744354 -15.4375 41.4453125 C-15.07520294 40.43784973 -14.71290588 39.43038696 -14.33963013 38.39239502 C-12.35757833 32.85989049 -10.4134621 27.316151 -8.5078125 21.75683594 C-8.09861572 20.56387909 -7.68941895 19.37092224 -7.26782227 18.14181519 C-6.48036378 15.83911319 -5.69682454 13.53506617 -4.91772461 11.22952271 C-4.38804077 9.67900711 -4.38804077 9.67900711 -3.84765625 8.09716797 C-3.53836182 7.18353485 -3.22906738 6.26990173 -2.91040039 5.32858276 C-2 3 -2 3 0 0 Z M-7 33 C-7.54188965 34.59593994 -7.54188965 34.59593994 -8.09472656 36.22412109 C-15.3967155 57.71815202 -22.77927039 79.17890527 -30.37071228 100.57237244 C-32.8120744 107.457799 -35.23489385 114.34970396 -37.65625 121.2421875 C-38.06905716 122.41697159 -38.48186432 123.59175568 -38.90718079 124.80213928 C-40.56785982 129.52840927 -42.22847726 134.25470018 -43.88754272 138.98153687 C-45.05305056 142.30180473 -46.21967352 145.62167848 -47.38671875 148.94140625 C-47.76394577 150.01579453 -48.14117279 151.0901828 -48.52983093 152.1971283 C-50.50576251 157.81068714 -52.50811436 163.41323614 -54.54931641 169.00341797 C-55.17021904 170.70799416 -55.17021904 170.70799416 -55.80366516 172.44700623 C-56.59312876 174.60939918 -57.38697595 176.77019862 -58.18595886 178.92909241 C-58.71809746 180.38719582 -58.71809746 180.38719582 -59.26098633 181.87475586 C-59.57352859 182.72243027 -59.88607086 183.57010468 -60.20808411 184.44346619 C-61.08556138 187.27621691 -61.57191436 190.06850228 -62 193 C-51.07112578 193.1320774 -40.14223376 193.26256527 -29.21331787 193.39115143 C-24.13585497 193.45093847 -19.05839916 193.51122607 -13.98095703 193.57275391 C17.50852881 193.96372197 17.50852881 193.96372197 49 194 C46.78282379 186.4391411 46.78282379 186.4391411 44.23828125 178.984375 C43.92842285 178.13794434 43.61856445 177.29151367 43.29931641 176.41943359 C42.97366699 175.53852051 42.64801758 174.65760742 42.3125 173.75 C41.59761214 171.79949533 40.88276962 169.84897405 40.16796875 167.8984375 C39.80622559 166.91456055 39.44448242 165.93068359 39.07177734 164.91699219 C37.41435489 160.40608479 35.76846789 155.89100727 34.125 151.375 C33.79838379 150.47813477 33.47176758 149.58126953 33.13525391 148.65722656 C30.02339718 140.09624951 26.96855238 131.51514979 23.92016602 122.93139648 C21.75906966 116.86286741 19.5661445 110.80925448 17.3046875 104.77734375 C12.19249301 91.1180565 7.41641849 77.41994496 3.0625 63.5 C2.83507111 62.77328094 2.60764221 62.04656189 2.37332153 61.29782104 C-0.55710499 51.90371697 -3.33980802 42.47419685 -6 33 C-6.33 33 -6.66 33 -7 33 Z " fill="#F3F3F2" transform="translate(196,104)"/>
<path d="M0 0 C2.625 2.125 2.625 2.125 4 4 C4 4.66 4 5.32 4 6 C4.66 6 5.32 6 6 6 C8.51737248 11.24972718 9.71749133 15.90935963 10.3125 21.6875 C10.39516113 22.47624512 10.47782227 23.26499023 10.56298828 24.07763672 C11.45606924 34.0561381 10.02382952 42.29202883 5 51 C4.34 51 3.68 51 3 51 C3 51.66 3 52.32 3 53 C-3.25976568 58.19427365 -10.75638476 60.55566777 -18.859375 60.31640625 C-25.87240345 59.27980898 -32.14036817 56.09104286 -37 51 C-41.58915753 43.47437189 -42.23467744 37.05999762 -42.3125 28.375 C-42.34150391 27.31925781 -42.37050781 26.26351563 -42.40039062 25.17578125 C-42.47554625 15.84492185 -40.20111213 8.41661248 -33.7421875 1.5078125 C-24.22851451 -6.72599417 -10.52708541 -5.94042823 0 0 Z " fill="#F5F5F5" transform="translate(436,360)"/>
<path d="M0 0 C0.87454834 0.00523682 1.74909668 0.01047363 2.65014648 0.01586914 C3.59438477 0.0190918 4.53862305 0.02231445 5.51147461 0.02563477 C6.50469727 0.03401367 7.49791992 0.04239258 8.52124023 0.05102539 C9.51833008 0.05553711 10.51541992 0.06004883 11.54272461 0.06469727 C14.01478872 0.07652532 16.48673541 0.0930069 18.95874023 0.11352539 C18.95874023 0.44352539 18.95874023 0.77352539 18.95874023 1.11352539 C12.68874023 1.11352539 6.41874023 1.11352539 -0.04125977 1.11352539 C-0.04125977 1.77352539 -0.04125977 2.43352539 -0.04125977 3.11352539 C40.87874023 3.44352539 81.79874023 3.77352539 123.95874023 4.11352539 C123.95874023 3.12352539 123.95874023 2.13352539 123.95874023 1.11352539 C122.30874023 1.11352539 120.65874023 1.11352539 118.95874023 1.11352539 C118.95874023 0.78352539 118.95874023 0.45352539 118.95874023 0.11352539 C120.93874023 0.11352539 122.91874023 0.11352539 124.95874023 0.11352539 C125.28874023 0.77352539 125.61874023 1.43352539 125.95874023 2.11352539 C125.62874023 3.10352539 125.29874023 4.09352539 124.95874023 5.11352539 C112.38675326 5.26896835 99.8147019 5.41710628 87.24252605 5.55648899 C81.40170845 5.62146118 75.56093833 5.68873943 69.72021484 5.76171875 C19.35955428 6.387803 19.35955428 6.387803 -2.04125977 5.11352539 C-2.60375977 3.17602539 -2.60375977 3.17602539 -3.04125977 1.11352539 C-2.04125977 0.11352539 -2.04125977 0.11352539 0 0 Z " fill="#C8C8C8" transform="translate(238.041259765625,410.886474609375)"/>
<path d="M0 0 C0.87454834 0.00523682 1.74909668 0.01047363 2.65014648 0.01586914 C3.59438477 0.0190918 4.53862305 0.02231445 5.51147461 0.02563477 C6.50469727 0.03401367 7.49791992 0.04239258 8.52124023 0.05102539 C9.51833008 0.05553711 10.51541992 0.06004883 11.54272461 0.06469727 C14.01478872 0.07652532 16.48673541 0.0930069 18.95874023 0.11352539 C18.95874023 0.44352539 18.95874023 0.77352539 18.95874023 1.11352539 C12.68874023 1.11352539 6.41874023 1.11352539 -0.04125977 1.11352539 C-0.04125977 1.77352539 -0.04125977 2.43352539 -0.04125977 3.11352539 C15.79874023 3.60852539 15.79874023 3.60852539 31.95874023 4.11352539 C28.18902788 6.62666696 26.3724613 6.27326911 21.88452148 6.09008789 C21.20068893 6.06506195 20.51685638 6.04003601 19.81230164 6.01425171 C17.63143394 5.93217814 15.45148926 5.83554275 13.27124023 5.73852539 C11.79146005 5.6802727 10.31164214 5.62296969 8.83178711 5.56665039 C5.20693601 5.42661989 1.58277099 5.27352535 -2.04125977 5.11352539 C-2.60375977 3.17602539 -2.60375977 3.17602539 -3.04125977 1.11352539 C-2.04125977 0.11352539 -2.04125977 0.11352539 0 0 Z " fill="#B8B8B8" transform="translate(238.041259765625,410.886474609375)"/>
<path d="M0 0 C6.93 0 13.86 0 21 0 C21 0.33 21 0.66 21 1 C14.73 1 8.46 1 2 1 C1.67 1.99 1.34 2.98 1 4 C0.34 4 -0.32 4 -1 4 C-0.67 2.68 -0.34 1.36 0 0 Z " fill="#A8A8A7" transform="translate(236,411)"/>
<path d="M0 0 C0.33 0.66 0.66 1.32 1 2 C1.66 2.33 2.32 2.66 3 3 C2.319375 3.61875 2.319375 3.61875 1.625 4.25 C-0.05950374 6.06408095 -0.99265971 7.75285627 -2 10 C-3 8 -3 8 -2.44140625 6.0546875 C-2.15136719 5.33539063 -1.86132812 4.61609375 -1.5625 3.875 C-1.27503906 3.15054688 -0.98757812 2.42609375 -0.69140625 1.6796875 C-0.46324219 1.12539062 -0.23507813 0.57109375 0 0 Z " fill="#B2B2AF" transform="translate(156,215)"/>
</svg>
